<svg width="106" height="105" viewBox="0 0 106 105" fill="none" xmlns="http://www.w3.org/2000/svg">
<path d="M1 104H104C98.0795 98.7834 96.0321 94.1815 86.5692 93.5432C84.7865 84.0036 78.5578 80.2976 70.7231 82.1691C59.0365 86.5719 65.0819 97.2591 70.7231 96.4784C73.1 95.9281 74.5754 93.5606 71.5154 91.8921C70.9212 90.6079 72.2497 89.9449 73.6942 90.241C76.8635 91.3417 76.8798 96.2696 72.5058 98.1295C67.5538 99.964 62.1188 96.9505 59.8288 92.8093C55.0294 96.7641 52.3769 97.1906 48.3404 92.8093C43.9827 97.5791 36.0173 96.1093 34.8712 92.8093C34.6575 90.8972 34.8895 89.9357 37.6442 88.9568C36.1626 87.8227 35.5347 87.1299 35.2673 85.6547C34.2769 81.8022 37.4947 77.9834 43.3885 78.6834C46.9538 78.6834 48.1996 83.5674 45.1712 84.187C42.9923 84.187 44.9563 83.2317 43.9827 81.0683C42.0019 78.6834 39.0018 81.2952 38.8327 84.187C38.8327 87.3058 42.6953 90.5601 48.3404 90.241C56.6596 90.241 57.2578 80.5059 54.0846 74.2806C57.65 71.3453 59.1776 65.5836 56.0654 60.3381V57.036H53.6885C46.7558 52.6331 40.8432 54.0123 36.6538 57.7698C33.6827 55.2014 26.1525 53.1252 21.0058 57.036C17.4404 59.2374 16.8445 65.165 19.6192 68.0432C22.3923 71.7122 28.9637 71.57 29.325 68.0432C29.3831 66.2097 28.7667 65.7392 26.3539 66.0252C24.7999 65.7882 24.4912 65.4818 25.1654 64.5576C26.0316 63.9013 26.4881 63.5092 28.5327 63.8237C30.565 64.4573 31.2281 65.0771 31.7019 66.5755C32.0941 69.7863 31.0997 71.0082 28.5327 72.813C24.9007 75.0793 22.8205 74.8244 19.025 71.3453C18.6041 72.762 17.8652 72.9476 16.8288 73.1799C14.1247 73.3607 12.9706 72.5537 12.075 70.6115C11.9222 67.1998 11.538 65.3286 16.45 61.8058C13.9238 59.8801 12.8368 58.6342 12.4885 57.036C12.1334 54.2029 12.6432 52.6853 15.2615 50.0647C12.765 48.5143 11.5101 47.4457 9.71539 44.9281C8.67912 42.7951 8.29598 41.6017 8.52692 39.4245C9.32298 36.2279 10.9377 34.9313 15.0635 34.8381C18.5074 35.192 19.1081 35.865 19.2231 37.4065C18.9333 39.448 17.9266 39.6674 16.45 38.1403C14.2 36.5117 12.1884 36.4433 11.4981 39.4245C11.6701 44.0475 15.8929 47.3715 21.0058 46.7626C26.4343 45.4643 29.2475 43.0445 29.1269 34.8381C28.0567 27.8179 24.7458 25.6289 15.8558 23.6475C15.6883 19.1799 15.4385 16.6454 11.1019 11.9065C7.32748 8.47131 5.10806 6.28008 1 2V104Z" fill="#73D0ED" fill-opacity="0.91" stroke="#63613A"/>
</svg>
