<svg width="105" height="106" viewBox="0 0 105 106" fill="none" xmlns="http://www.w3.org/2000/svg">
<path d="M1 1L1 104C6.21661 98.0795 10.8185 96.0321 11.4568 86.5692C20.9964 84.7865 24.7024 78.5578 22.8309 70.7231C18.4281 59.0365 7.74094 65.0819 8.52158 70.7231C9.07195 73.1 11.4394 74.5754 13.1079 71.5154C14.3921 70.9212 15.0551 72.2497 14.759 73.6942C13.6583 76.8635 8.73044 76.8798 6.87051 72.5058C5.03597 67.5538 8.0495 62.1188 12.1907 59.8288C8.23586 55.0294 7.80941 52.3769 12.1907 48.3404C7.42087 43.9827 8.89072 36.0173 12.1907 34.8712C14.1028 34.6575 15.0643 34.8895 16.0432 37.6442C17.1773 36.1626 17.8701 35.5347 19.3453 35.2673C23.1978 34.2769 27.0166 37.4947 26.3166 43.3885C26.3166 46.9538 21.4326 48.1996 20.813 45.1712C20.813 42.9923 21.7683 44.9563 23.9317 43.9827C26.3166 42.0019 23.7048 39.0018 20.813 38.8327C17.6942 38.8327 14.4399 42.6953 14.759 48.3404C14.759 56.6596 24.4941 57.2578 30.7194 54.0846C33.6547 57.65 39.4164 59.1776 44.6619 56.0654H47.964V53.6885C52.3669 46.7558 50.9877 40.8432 47.2302 36.6538C49.7986 33.6827 51.8748 26.1525 47.964 21.0058C45.7626 17.4404 39.835 16.8445 36.9568 19.6192C33.2878 22.3923 33.43 28.9637 36.9568 29.325C38.7903 29.3831 39.2608 28.7667 38.9748 26.3539C39.2118 24.7999 39.5182 24.4912 40.4424 25.1654C41.0987 26.0316 41.4908 26.4881 41.1763 28.5327C40.5427 30.565 39.9229 31.2281 38.4245 31.7019C35.2137 32.0941 33.9918 31.0997 32.187 28.5327C29.9207 24.9007 30.1756 22.8205 33.6547 19.025C32.238 18.6041 32.0524 17.8652 31.8201 16.8288C31.6393 14.1247 32.4463 12.9706 34.3885 12.075C37.8002 11.9222 39.6714 11.538 43.1942 16.45C45.1199 13.9238 46.3658 12.8368 47.964 12.4885C50.7971 12.1334 52.3147 12.6432 54.9353 15.2615C56.4857 12.765 57.5543 11.5101 60.0719 9.71539C62.2049 8.67912 63.3983 8.29598 65.5755 8.52692C68.7721 9.32298 70.0687 10.9377 70.1619 15.0635C69.808 18.5074 69.135 19.1081 67.5935 19.2231C65.552 18.9333 65.3326 17.9266 66.8597 16.45C68.4883 14.2 68.5567 12.1884 65.5755 11.4981C60.9525 11.6701 57.6285 15.8929 58.2374 21.0058C59.5357 26.4343 61.9555 29.2475 70.1619 29.1269C77.1821 28.0567 79.3711 24.7458 81.3525 15.8558C85.8201 15.6883 88.3546 15.4385 93.0935 11.1019C96.5287 7.32748 98.7199 5.10806 103 1L1 1Z" fill="#73D0ED" fill-opacity="0.91" stroke="#63613A"/>
</svg>
