<svg width="106" height="105" viewBox="0 0 106 105" fill="none" xmlns="http://www.w3.org/2000/svg">
<path d="M105 1H2C7.92055 6.21661 9.96789 10.8185 19.4308 11.4568C21.2135 20.9964 27.4422 24.7024 35.2769 22.8309C46.9635 18.4281 40.9181 7.74094 35.2769 8.52158C32.9 9.07195 31.4246 11.4394 34.4846 13.1079C35.0788 14.3921 33.7503 15.0551 32.3058 14.759C29.1365 13.6583 29.1202 8.73044 33.4942 6.87051C38.4462 5.03597 43.8812 8.0495 46.1712 12.1907C50.9706 8.23586 53.6231 7.80941 57.6596 12.1907C62.0173 7.42087 69.9827 8.89072 71.1288 12.1907C71.3425 14.1028 71.1105 15.0643 68.3558 16.0432C69.8374 17.1773 70.4653 17.8701 70.7327 19.3453C71.7231 23.1978 68.5053 27.0166 62.6115 26.3166C59.0462 26.3166 57.8004 21.4326 60.8288 20.813C63.0077 20.813 61.0437 21.7683 62.0173 23.9317C63.9981 26.3166 66.9982 23.7048 67.1673 20.813C67.1673 17.6942 63.3047 14.4399 57.6596 14.759C49.3404 14.759 48.7422 24.4941 51.9154 30.7194C48.35 33.6547 46.8224 39.4164 49.9346 44.6619V47.964H52.3115C59.2442 52.3669 65.1568 50.9877 69.3462 47.2302C72.3173 49.7986 79.8475 51.8748 84.9942 47.964C88.5596 45.7626 89.1555 39.835 86.3808 36.9568C83.6077 33.2878 77.0363 33.43 76.675 36.9568C76.6169 38.7903 77.2333 39.2608 79.6461 38.9748C81.2001 39.2118 81.5088 39.5182 80.8346 40.4424C79.9684 41.0987 79.5119 41.4908 77.4673 41.1763C75.435 40.5427 74.7719 39.9229 74.2981 38.4245C73.9059 35.2137 74.9003 33.9918 77.4673 32.187C81.0993 29.9207 83.1795 30.1756 86.975 33.6547C87.3959 32.238 88.1348 32.0524 89.1712 31.8201C91.8753 31.6393 93.0294 32.4463 93.925 34.3885C94.0778 37.8002 94.462 39.6714 89.55 43.1942C92.0762 45.1199 93.1632 46.3658 93.5115 47.964C93.8666 50.7971 93.3568 52.3147 90.7385 54.9353C93.235 56.4857 94.4899 57.5543 96.2846 60.0719C97.3209 62.2049 97.704 63.3983 97.4731 65.5755C96.677 68.7721 95.0623 70.0687 90.9365 70.1619C87.4926 69.808 86.8919 69.135 86.7769 67.5935C87.0667 65.552 88.0734 65.3326 89.55 66.8597C91.8 68.4883 93.8116 68.5567 94.5019 65.5755C94.3299 60.9525 90.1071 57.6285 84.9942 58.2374C79.5657 59.5357 76.7525 61.9555 76.8731 70.1619C77.9433 77.1821 81.2542 79.3711 90.1442 81.3525C90.3117 85.8201 90.5615 88.3546 94.8981 93.0935C98.6725 96.5287 100.892 98.7199 105 103V1Z" fill="#73D0ED" fill-opacity="0.91" stroke="#63613A"/>
</svg>
