<svg width="105" height="106" viewBox="0 0 105 106" fill="none" xmlns="http://www.w3.org/2000/svg">
<path d="M103.875 104.867V1.86652C98.6586 7.78706 94.0567 9.8344 93.4183 19.2973C83.8788 21.08 80.1728 27.3087 82.0442 35.1434C86.4471 46.83 97.1342 40.7847 96.3536 35.1434C95.8032 32.7665 93.4358 31.2911 91.7673 34.3511C90.4831 34.9454 89.8201 33.6168 90.1162 32.1723C91.2169 29.0031 96.1447 28.9867 98.0047 33.3607C99.8392 38.3127 96.8257 43.7477 92.6845 46.0377C96.6393 50.8371 97.0658 53.4896 92.6845 57.5261C97.4543 61.8838 95.9845 69.8493 92.6845 70.9954C90.7724 71.209 89.8109 70.977 88.832 68.2223C87.6979 69.704 87.0051 70.3318 85.5299 70.5992C81.6773 71.5896 77.8586 68.3718 78.5586 62.4781C78.5586 58.9127 83.4426 57.6669 84.0622 60.6954C84.0622 62.8742 83.1068 60.9102 80.9435 61.8838C78.5586 63.8646 81.1704 66.8648 84.0622 67.0338C87.1809 67.0338 90.4353 63.1712 90.1162 57.5261C90.1162 49.2069 80.3811 48.6087 74.1558 51.7819C71.2205 48.2165 65.4588 46.6889 60.2133 49.8011H56.9112V52.1781C52.5083 59.1107 53.8875 65.0233 57.645 69.2127C55.0766 72.1838 53.0004 79.7141 56.9112 84.8607C59.1126 88.4261 65.0402 89.0221 67.9184 86.2473C71.5874 83.4742 71.4452 76.9028 67.9184 76.5415C66.0849 76.4834 65.6143 77.0998 65.9004 79.5127C65.6633 81.0666 65.357 81.3753 64.4327 80.7011C63.7764 79.835 63.3844 79.3784 63.6989 77.3338C64.3325 75.3016 64.9522 74.6384 66.4507 74.1646C69.6615 73.7724 70.8834 74.7668 72.6881 77.3338C74.9544 80.9659 74.6996 83.046 71.2205 86.8415C72.6372 87.2624 72.8228 88.0013 73.055 89.0377C73.2358 91.7418 72.4288 92.8959 70.4867 93.7916C67.0749 93.9443 65.2038 94.3285 61.6809 89.4165C59.7553 91.9427 58.5094 93.0297 56.9112 93.3781C54.078 93.7332 52.5605 93.2233 49.9399 90.605C48.3895 93.1015 47.3209 94.3564 44.8032 96.1511C42.6703 97.1874 41.4769 97.5705 39.2996 97.3396C36.1031 96.5435 34.8065 94.9288 34.7133 90.8031C35.0672 87.3592 35.7401 86.7584 37.2817 86.6434C39.3232 86.9332 39.5426 87.9399 38.0155 89.4165C36.3868 91.6665 36.3185 93.6781 39.2996 94.3684C43.9227 94.1964 47.2467 89.9736 46.6378 84.8607C45.3395 79.4323 42.9197 76.619 34.7133 76.7396C27.693 77.8098 25.504 81.1207 23.5227 90.0107C19.0551 90.1782 16.5206 90.4281 11.7817 94.7646C8.34649 98.539 6.15526 100.758 1.87518 104.867H103.875Z" fill="#73D0ED" fill-opacity="0.91" stroke="#63613A"/>
</svg>
